Coordinates
version=1
nRows=13
nColumns=38
inDegrees=no

Units are S.I. units (second, meters, Newtons, ...)
If the header above contains a line with 'inDegrees', this indicates whether rotational values are in degrees (yes) or radians (no).

endheader
time	pelvis_tilt	pelvis_list	pelvis_rotation	pelvis_tx	pelvis_ty	pelvis_tz	hip_flexion_r	hip_adduction_r	hip_rotation_r	knee_angle_r	ankle_angle_r	subtalar_angle_r	mtp_angle_r	hip_flexion_l	hip_adduction_l	hip_rotation_l	knee_angle_l	ankle_angle_l	subtalar_angle_l	mtp_angle_l	lumbar_extension	lumbar_bending	lumbar_rotation	arm_flex_r	arm_add_r	arm_rot_r	elbow_flex_r	pro_sup_r	wrist_flex_r	wrist_dev_r	arm_flex_l	arm_add_l	arm_rot_l	elbow_flex_l	pro_sup_l	wrist_flex_l	wrist_dev_l
1.83	0.0928576	1.24333	-1.65818	0.773021	-0.179095	1.09251	-0.144156	-0.0894434	0.0380243	1.13279	-0.500275	0	0	-0.100122	-0.0672613	-0.328882	0.438307	-0.208984	0	0	-0.463725	0.0211718	-0.0662078	0.642113	-0.541221	0.662834	1.06031	0.593594	0	0	0.37785	-0.422506	0.197611	1.11037	0.766498	0	0
1.84	0.0836919	1.24128	-1.64934	0.776209	-0.188674	1.09411	-0.126229	-0.082201	0.0428158	1.15843	-0.476758	0	0	-0.112963	-0.0673416	-0.330928	0.437336	-0.205345	0	0	-0.467833	0.0270399	-0.0680142	0.645704	-0.543441	0.666984	1.06325	0.592525	0	0	0.376677	-0.423658	0.197503	1.11189	0.763056	0	0
1.85	0.0744615	1.23922	-1.64091	0.779107	-0.198369	1.09574	-0.10873	-0.0739309	0.0474947	1.17962	-0.458414	0	0	-0.126442	-0.0681962	-0.334874	0.436567	-0.202007	0	0	-0.471491	0.0323581	-0.0692167	0.64747	-0.544569	0.668857	1.06593	0.592302	0	0	0.375094	-0.424691	0.197017	1.11314	0.760373	0	0
1.86	0.0661019	1.23736	-1.63357	0.781785	-0.208181	1.0974	-0.0912104	-0.0651534	0.0520394	1.19537	-0.447157	0	0	-0.140528	-0.0691398	-0.339177	0.435441	-0.199598	0	0	-0.474533	0.0369014	-0.0699009	0.647582	-0.545053	0.668754	1.06847	0.594994	0	0	0.373481	-0.425566	0.196773	1.11393	0.758446	0	0
1.87	0.0595472	1.23635	-1.62784	0.78439	-0.218116	1.09898	-0.0732237	-0.0563811	0.0561133	1.20678	-0.425182	0	0	-0.153994	-0.0697915	-0.344017	0.435017	-0.195529	0	0	-0.47583	0.040918	-0.0710631	0.651734	-0.548023	0.679511	1.0699	0.581956	0	0	0.371105	-0.426297	0.196482	1.11412	0.755565	0	0
1.88	0.0547665	1.23659	-1.62346	0.786916	-0.228075	1.10051	-0.054472	-0.0474436	0.0595668	1.21312	-0.405065	0	0	-0.166458	-0.0697102	-0.348251	0.433421	-0.193065	0	0	-0.475921	0.0440837	-0.0717101	0.650721	-0.548386	0.679849	1.07097	0.58266	0	0	0.369485	-0.426003	0.196121	1.11312	0.756167	0	0
1.89	0.0504333	1.23796	-1.61904	0.789329	-0.237981	1.10197	-0.0349915	-0.0378431	0.0623326	1.21549	-0.382736	0	0	-0.177827	-0.0694297	-0.351849	0.430728	-0.191145	0	0	-0.47502	0.04697	-0.0723812	0.648693	-0.548145	0.678451	1.07154	0.584247	0	0	0.368443	-0.425414	0.195688	1.11112	0.759407	0	0
1.9	0.0454512	1.24018	-1.61351	0.79162	-0.247775	1.10336	-0.0155108	-0.0277846	0.0646638	1.21368	-0.372113	0	0	-0.188311	-0.0693396	-0.354943	0.427	-0.191268	0	0	-0.473645	0.0500468	-0.0731408	0.647329	-0.547867	0.67807	1.07143	0.58357	0	0	0.368108	-0.42532	0.196378	1.10888	0.760714	0	0
1.91	0.0403358	1.24449	-1.60792	0.793722	-0.257529	1.1045	0.0057064	-0.0173064	0.0677073	1.20976	-0.340184	0	0	-0.196396	-0.0692076	-0.357584	0.422794	-0.190356	0	0	-0.470133	0.0528711	-0.073308	0.644918	-0.546903	0.675968	1.0705	0.582879	0	0	0.367166	-0.423474	0.195439	1.1066	0.760412	0	0
1.92	0.0343989	1.2493	-1.60148	0.795757	-0.267168	1.10554	0.0269518	-0.00676505	0.0706312	1.2012	-0.311749	0	0	-0.203938	-0.0690795	-0.359706	0.417703	-0.189915	0	0	-0.4664	0.056016	-0.0732066	0.642532	-0.54598	0.673454	1.06945	0.583538	0	0	0.366772	-0.422324	0.196148	1.10421	0.759236	0	0
1.93	0.0285969	1.25482	-1.5953	0.797752	-0.276746	1.10642	0.0486679	0.00338223	0.0738072	1.1893	-0.280038	0	0	-0.210588	-0.068565	-0.360958	0.412206	-0.189498	0	0	-0.462292	0.0589669	-0.0721603	0.636053	-0.543126	0.661445	1.0688	0.59861	0	0	0.367469	-0.421817	0.199252	1.10136	0.761487	0	0
1.94	0.0223356	1.25946	-1.58877	0.799849	-0.28617	1.1072	0.0687659	0.0129455	0.0772403	1.17316	-0.254808	0	0	-0.218372	-0.0673239	-0.360542	0.404962	-0.18968	0	0	-0.458089	0.0628042	-0.0740156	0.644216	-0.54485	0.678913	1.06402	0.577703	0	0	0.365604	-0.421948	0.199082	1.09958	0.757394	0	0
1.95	0.0161937	1.26259	-1.58175	0.802167	-0.295484	1.10797	0.0861071	0.0212244	0.0796689	1.15194	-0.246064	0	0	-0.227474	-0.0655198	-0.359046	0.397227	-0.189954	0	0	-0.456299	0.0670316	-0.0758845	0.648325	-0.54456	0.685035	1.06068	0.573512	0	0	0.364518	-0.422135	0.199553	1.09945	0.751495	0	0
